<mxfile host="app.diagrams.net" modified="2022-09-14T03:12:18.159Z" agent="5.0 (Macintosh; Intel Mac OS X 10_15_7) AppleWebKit/605.1.15 (KHTML, like Gecko) Version/16.0 Safari/605.1.15" etag="MaXUm9dtogjchnEu7Gru" version="20.3.0" type="github">
  <diagram id="gZqr8vrQlD-l1JzZIttL" name="第 1 页">
    <mxGraphModel dx="935" dy="733" grid="0" gridSize="10" guides="1" tooltips="1" connect="1" arrows="1" fold="1" page="1" pageScale="1" pageWidth="827" pageHeight="1169" math="0" shadow="0">
      <root>
        <mxCell id="0" />
        <mxCell id="1" parent="0" />
        <mxCell id="LnnLo1sc0A9D26pfdpsA-3" value="" style="edgeStyle=orthogonalEdgeStyle;rounded=0;orthogonalLoop=1;jettySize=auto;html=1;" edge="1" parent="1" source="LnnLo1sc0A9D26pfdpsA-1" target="LnnLo1sc0A9D26pfdpsA-2">
          <mxGeometry relative="1" as="geometry" />
        </mxCell>
        <mxCell id="LnnLo1sc0A9D26pfdpsA-1" value="校准开始" style="rounded=0;whiteSpace=wrap;html=1;" vertex="1" parent="1">
          <mxGeometry x="330" y="50" width="90" height="40" as="geometry" />
        </mxCell>
        <mxCell id="LnnLo1sc0A9D26pfdpsA-5" value="" style="edgeStyle=orthogonalEdgeStyle;rounded=0;orthogonalLoop=1;jettySize=auto;html=1;" edge="1" parent="1" source="LnnLo1sc0A9D26pfdpsA-2" target="LnnLo1sc0A9D26pfdpsA-4">
          <mxGeometry relative="1" as="geometry" />
        </mxCell>
        <mxCell id="LnnLo1sc0A9D26pfdpsA-2" value="校准点高亮&lt;br&gt;并提示用户" style="rounded=0;whiteSpace=wrap;html=1;" vertex="1" parent="1">
          <mxGeometry x="330" y="170" width="90" height="40" as="geometry" />
        </mxCell>
        <mxCell id="LnnLo1sc0A9D26pfdpsA-7" value="" style="edgeStyle=orthogonalEdgeStyle;rounded=0;orthogonalLoop=1;jettySize=auto;html=1;" edge="1" parent="1" source="LnnLo1sc0A9D26pfdpsA-4" target="LnnLo1sc0A9D26pfdpsA-6">
          <mxGeometry relative="1" as="geometry" />
        </mxCell>
        <mxCell id="LnnLo1sc0A9D26pfdpsA-18" style="edgeStyle=orthogonalEdgeStyle;rounded=0;orthogonalLoop=1;jettySize=auto;html=1;exitX=1;exitY=0.5;exitDx=0;exitDy=0;entryX=1;entryY=0.5;entryDx=0;entryDy=0;" edge="1" parent="1" source="LnnLo1sc0A9D26pfdpsA-4" target="LnnLo1sc0A9D26pfdpsA-2">
          <mxGeometry relative="1" as="geometry">
            <Array as="points">
              <mxPoint x="490" y="320" />
              <mxPoint x="490" y="190" />
            </Array>
          </mxGeometry>
        </mxCell>
        <mxCell id="LnnLo1sc0A9D26pfdpsA-4" value="视觉焦&lt;br&gt;点确认" style="rhombus;whiteSpace=wrap;html=1;rounded=0;" vertex="1" parent="1">
          <mxGeometry x="335" y="280" width="80" height="80" as="geometry" />
        </mxCell>
        <mxCell id="LnnLo1sc0A9D26pfdpsA-9" value="" style="edgeStyle=orthogonalEdgeStyle;rounded=0;orthogonalLoop=1;jettySize=auto;html=1;" edge="1" parent="1" source="LnnLo1sc0A9D26pfdpsA-6" target="LnnLo1sc0A9D26pfdpsA-8">
          <mxGeometry relative="1" as="geometry" />
        </mxCell>
        <mxCell id="LnnLo1sc0A9D26pfdpsA-14" value="" style="edgeStyle=orthogonalEdgeStyle;rounded=0;orthogonalLoop=1;jettySize=auto;html=1;" edge="1" parent="1" source="LnnLo1sc0A9D26pfdpsA-6" target="LnnLo1sc0A9D26pfdpsA-13">
          <mxGeometry relative="1" as="geometry" />
        </mxCell>
        <mxCell id="LnnLo1sc0A9D26pfdpsA-6" value="所有视觉&lt;br&gt;焦点确认" style="rhombus;whiteSpace=wrap;html=1;rounded=0;" vertex="1" parent="1">
          <mxGeometry x="335" y="430" width="80" height="80" as="geometry" />
        </mxCell>
        <mxCell id="LnnLo1sc0A9D26pfdpsA-8" value="校准完成" style="whiteSpace=wrap;html=1;rounded=0;" vertex="1" parent="1">
          <mxGeometry x="320" y="600" width="110" height="30" as="geometry" />
        </mxCell>
        <mxCell id="LnnLo1sc0A9D26pfdpsA-15" style="edgeStyle=orthogonalEdgeStyle;rounded=0;orthogonalLoop=1;jettySize=auto;html=1;exitX=0.5;exitY=0;exitDx=0;exitDy=0;entryX=0;entryY=0.5;entryDx=0;entryDy=0;" edge="1" parent="1" source="LnnLo1sc0A9D26pfdpsA-13" target="LnnLo1sc0A9D26pfdpsA-2">
          <mxGeometry relative="1" as="geometry" />
        </mxCell>
        <mxCell id="LnnLo1sc0A9D26pfdpsA-13" value="下一校准点" style="whiteSpace=wrap;html=1;rounded=0;" vertex="1" parent="1">
          <mxGeometry x="140" y="280" width="120" height="60" as="geometry" />
        </mxCell>
        <mxCell id="LnnLo1sc0A9D26pfdpsA-16" value="是" style="text;html=1;align=center;verticalAlign=middle;resizable=0;points=[];autosize=1;strokeColor=none;fillColor=none;" vertex="1" parent="1">
          <mxGeometry x="374" y="540" width="40" height="30" as="geometry" />
        </mxCell>
        <mxCell id="LnnLo1sc0A9D26pfdpsA-17" value="否" style="text;html=1;align=center;verticalAlign=middle;resizable=0;points=[];autosize=1;strokeColor=none;fillColor=none;" vertex="1" parent="1">
          <mxGeometry x="270" y="445" width="40" height="30" as="geometry" />
        </mxCell>
        <mxCell id="LnnLo1sc0A9D26pfdpsA-19" value="是" style="text;html=1;align=center;verticalAlign=middle;resizable=0;points=[];autosize=1;strokeColor=none;fillColor=none;" vertex="1" parent="1">
          <mxGeometry x="374" y="380" width="40" height="30" as="geometry" />
        </mxCell>
        <mxCell id="LnnLo1sc0A9D26pfdpsA-20" value="否" style="text;html=1;align=center;verticalAlign=middle;resizable=0;points=[];autosize=1;strokeColor=none;fillColor=none;" vertex="1" parent="1">
          <mxGeometry x="430" y="290" width="40" height="30" as="geometry" />
        </mxCell>
      </root>
    </mxGraphModel>
  </diagram>
</mxfile>
